<svg xmlns="http://www.w3.org/2000/svg" viewBox="0 0 940 330" width="940" height="330" role="img" aria-labelledby="t d" font-family="Inter,'Segoe UI',Arial,sans-serif">
<title id="t">Lectura de un XML</title><desc id="d">El XML se lee por partes: se conservan proyecto, tareas, líneas base y predecesoras; se descartan asignaciones, recursos, calendarios y time phasing.</desc>
<defs>
<marker id="ah" viewBox="0 0 10 10" refX="9" refY="5" markerWidth="8" markerHeight="8" orient="auto"><path d="M0,1 L10,5 L0,9 z" fill="#5a6b78"/></marker>
<marker id="ab" viewBox="0 0 10 10" refX="9" refY="5" markerWidth="8" markerHeight="8" orient="auto"><path d="M0,1 L10,5 L0,9 z" fill="#2563eb"/></marker>
<pattern id="hatch" width="6" height="6" patternUnits="userSpaceOnUse" patternTransform="rotate(45)"><rect width="6" height="6" fill="#d0d0d0"/><line x1="0" y1="0" x2="0" y2="6" stroke="#8a8a8a" stroke-width="1.4"/></pattern>
</defs>
<rect x=".5" y=".5" width="939" height="329" rx="14" fill="#fff" stroke="#dde5ee"/>
<text x="470" text-anchor="middle" font-size="17" font-weight="700" fill="#0f2d5b"><tspan x="470" y="38.0">Cómo se lee un archivo XML de Project</tspan></text>
<rect x="24" y="120" width="150" height="70" rx="10" fill="#fff7e6" stroke="#f59e0b" stroke-width="1.5"/><text x="99" text-anchor="middle" font-size="13" font-weight="600" fill="#7a4a00"><tspan x="99" y="151.4">Archivo .xml</tspan><tspan x="99" y="167.7">hasta más de 1 GB</tspan></text>
<line x1="176" y1="155" x2="214" y2="155" stroke="#5a6b78" stroke-width="2" marker-end="url(#ah)"/>
<rect x="216" y="120" width="150" height="70" rx="10" fill="#e8f0ff" stroke="#2563eb" stroke-width="1.5"/><text x="291" text-anchor="middle" font-size="14" font-weight="600" fill="#0f2d5b"><tspan x="291" y="151.2">Lectura</tspan><tspan x="291" y="168.7">por partes</tspan></text>
<line x1="368" y1="140" x2="418" y2="90" stroke="#5a6b78" stroke-width="2" marker-end="url(#ah)"/>
<line x1="368" y1="170" x2="418" y2="240" stroke="#5a6b78" stroke-width="2" marker-end="url(#ah)"/>
<rect x="420" y="52" width="240" height="100" rx="10" fill="#ecfdf3" stroke="#16a34a" stroke-width="1.5"/><text x="540" text-anchor="middle" font-size="12" font-weight="600" fill="#0f5132"><tspan x="540" y="83.7">SE CONSERVA</tspan><tspan x="540" y="98.7">Proyecto y campos personalizados</tspan><tspan x="540" y="113.7">Tareas · líneas base 0–10</tspan><tspan x="540" y="128.7">Predecesoras (UID → ID)</tspan></text>
<rect x="420" y="190" width="240" height="100" rx="10" fill="#fdf2f2" stroke="#e57373" stroke-width="1.5"/><text x="540" text-anchor="middle" font-size="12" font-weight="600" fill="#7a1f1f"><tspan x="540" y="221.7">SE DESCARTA</tspan><tspan x="540" y="236.7">Asignaciones · recursos</tspan><tspan x="540" y="251.7">Calendarios</tspan><tspan x="540" y="266.7">Time phasing</tspan></text>
<line x1="662" y1="102" x2="712" y2="155" stroke="#5a6b78" stroke-width="2" marker-end="url(#ah)"/>
<rect x="714" y="120" width="200" height="70" rx="10" fill="#e8f0ff" stroke="#2563eb" stroke-width="1.5"/><text x="814" text-anchor="middle" font-size="14" font-weight="600" fill="#0f2d5b"><tspan x="814" y="151.2">Mapeo de columnas</tspan><tspan x="814" y="168.7">y Tabla de Datos</tspan></text>
<text x="470" text-anchor="middle" font-size="12" font-weight="500" fill="#5a6b78"><tspan x="470" y="316.2">La memoria depende del número de tareas, no del tamaño del archivo.</tspan></text>
</svg>
